# xmcd CD database file
#
# Track frame offsets:
#	150
#	20124
#	42155
#	64444
#	83030
#	99432
#	120001
#	138099
#	159118
#	180802
#
# Disc length: 2634 seconds
#
# Revision: 0
# Processed by: cddbd v1.5.2PL0 Copyright (c) Steve Scherf et al.
# Submitted via: CDex 1.70beta2
#
DISCID=6b0a480a
DTITLE=Jeanne Jolly - Angels
DYEAR=2012
DGENRE=Country
TTITLE0=Angels on Hayworth St
TTITLE1=Sweet Love
TTITLE2=Happy Days Cafe
TTITLE3=The Hard Way
TTITLE4=Tear Soup
TTITLE5=Long Way Home
TTITLE6=All Is Not Lost
TTITLE7=Round and Round Again
TTITLE8=The Kiss
TTITLE9=Good Man
EXTD=YEAR: 2012
EXTT0=
EXTT1=
EXTT2=
EXTT3=
EXTT4=
EXTT5=
EXTT6=
EXTT7=
EXTT8=
EXTT9=
PLAYORDER=
